<svg width="118" height="150" viewBox="0 0 118 150" fill="none" xmlns="http://www.w3.org/2000/svg">
<path fill-rule="evenodd" clip-rule="evenodd" d="M32.4942 0.00698504C25.5992 0.00250164 18.8816 1.92373 13.3144 5.49239C7.74707 9.06106 3.61918 14.0919 1.52856 19.8562C-0.562058 25.6205 -0.506868 31.819 1.68614 37.554C3.87915 43.289 8.09612 48.2626 13.7263 51.7545C9.48823 54.386 6.03188 57.8713 3.64758 61.9177C1.26327 65.9641 0.0206424 70.4534 0.0240674 75.0085C0.0240674 84.6087 5.43974 93.1065 13.7422 98.2624C9.19391 101.087 5.55076 104.891 3.16325 109.308C0.775738 113.726 -0.27578 118.608 0.10987 123.485C0.495521 128.362 2.30536 133.07 5.36525 137.156C8.42514 141.241 12.6321 144.568 17.5814 146.814C22.5306 149.061 28.0556 150.152 33.6247 149.983C39.1938 149.814 44.6197 148.39 49.3801 145.849C54.1406 143.308 58.0755 139.735 60.8063 135.473C63.5371 131.212 64.9718 126.405 64.9723 121.516V97.0694C68.3504 99.4704 72.2436 101.252 76.4211 102.308C80.5986 103.364 84.9753 103.673 89.2917 103.218C93.608 102.762 97.7761 101.55 101.549 99.655C105.321 97.7595 108.622 95.2186 111.254 92.1831C113.886 89.1475 115.797 85.6792 116.873 81.9836C117.948 78.2881 118.167 74.4407 117.516 70.6695C116.865 66.8984 115.358 63.2804 113.083 60.03C110.808 56.7796 107.813 53.9632 104.274 51.7476C109.904 48.2556 114.121 43.282 116.314 37.547C118.507 31.8121 118.562 25.6135 116.471 19.8492C114.381 14.0849 110.253 9.05408 104.686 5.48541C99.1184 1.91675 92.4007 -0.00447557 85.5058 7.82906e-06L32.4942 0.00698504ZM53.0356 93.0298H32.4942C29.7967 93.0298 27.1256 92.5636 24.6334 91.658C22.1412 90.7523 19.8767 89.4249 17.9693 87.7515C16.0618 86.078 14.5488 84.0914 13.5165 81.9049C12.4842 79.7185 11.9529 77.3751 11.9529 75.0085C11.9529 72.6419 12.4842 70.2985 13.5165 68.112C14.5488 65.9256 16.0618 63.9389 17.9693 62.2655C19.8767 60.5921 22.1412 59.2646 24.6334 58.359C27.1256 57.4533 29.7967 56.9872 32.4942 56.9872H53.0356V93.0298ZM32.4942 46.5219H53.0356V10.4723H32.4942C27.0453 10.4723 21.8195 12.3713 17.9665 15.7516C14.1135 19.1319 11.9489 23.7166 11.9489 28.4971C11.9489 33.2776 14.1135 37.8622 17.9665 41.2425C21.8195 44.6228 27.0453 46.5219 32.4942 46.5219ZM106.055 28.4936C106.057 33.2707 103.897 37.8531 100.05 41.2337C96.2026 44.6143 90.9827 46.5163 85.5376 46.5219H64.9644V10.4723H85.5137C88.2112 10.4723 90.8824 10.9384 93.3746 11.8441C95.8668 12.7498 98.1312 14.0772 100.039 15.7506C101.946 17.4241 103.459 19.4107 104.491 21.5972C105.524 23.7836 106.055 26.127 106.055 28.4936ZM64.9644 74.9876C64.9707 70.2153 67.1344 65.64 70.9808 62.2655C74.8272 58.891 80.0423 56.9927 85.4819 56.9872H85.5296C89.5903 56.9913 93.5584 58.0513 96.9328 60.0331C100.307 62.0149 102.936 64.8296 104.488 68.1217C106.04 71.4138 106.445 75.0356 105.651 78.5294C104.858 82.0232 102.902 85.2324 100.031 87.7515C97.1594 90.2705 93.5014 91.9865 89.519 92.6825C85.5366 93.3785 81.4084 93.0234 77.6559 91.662C73.9035 90.3006 70.6951 87.994 68.4362 85.0336C66.1772 82.0732 64.9691 78.5919 64.9644 75.0294V74.9876ZM32.4942 103.495C28.4319 103.495 24.4607 104.552 21.0829 106.532C17.705 108.512 15.0722 111.326 13.5172 114.618C11.9623 117.911 11.555 121.534 12.347 125.03C13.1389 128.525 15.0945 131.736 17.9665 134.257C20.8384 136.778 24.4978 138.494 28.4819 139.191C32.466 139.887 36.596 139.531 40.3496 138.168C44.1031 136.805 47.3118 134.496 49.5699 131.534C51.828 128.571 53.034 125.087 53.0356 121.523V103.495H32.4942Z" fill="#001F3F"/>
</svg>
