<svg width="150" height="150" viewBox="0 0 150 150" fill="none" xmlns="http://www.w3.org/2000/svg">
<path d="M4.44709 64.4171L47.8296 20.9595L60.5141 33.719C58.7128 40.0988 61.64 47.0791 67.4944 50.4566V92.0378C62.991 94.5897 59.9887 99.4684 59.9887 105.023C59.9887 109.004 61.5703 112.822 64.3854 115.637C67.2006 118.452 71.0188 120.034 75 120.034C78.9812 120.034 82.7994 118.452 85.6146 115.637C88.4297 112.822 90.0113 109.004 90.0113 105.023C90.0113 99.4684 87.009 94.5897 82.5056 92.0378V55.5604L98.0423 71.2472C97.5169 72.373 97.5169 73.649 97.5169 75C97.5169 78.9812 99.0984 82.7994 101.914 85.6146C104.729 88.4297 108.547 90.0113 112.528 90.0113C116.509 90.0113 120.328 88.4297 123.143 85.6146C125.958 82.7994 127.539 78.9812 127.539 75C127.539 71.0188 125.958 67.2006 123.143 64.3854C120.328 61.5703 116.509 59.9887 112.528 59.9887C111.177 59.9887 109.901 59.9887 108.775 60.5141L89.4859 41.2247C90.4178 37.7483 90.0565 34.0519 88.4691 30.8218C86.8816 27.5917 84.1759 25.0475 80.8544 23.6615C77.627 22.4606 74.2494 22.1604 71.2472 22.986L58.4876 10.3015L64.4171 4.44709C70.2715 -1.48236 79.7285 -1.48236 85.5829 4.44709L145.553 64.4171C151.482 70.2715 151.482 79.7285 145.553 85.5829L85.5829 145.553C79.7285 151.482 70.2715 151.482 64.4171 145.553L4.44709 85.5829C-1.48236 79.7285 -1.48236 70.2715 4.44709 64.4171Z" fill="#001F3F"/>
</svg>
