<svg width="140" height="140" viewBox="0 0 140 140" fill="none" xmlns="http://www.w3.org/2000/svg">
<path d="M0 0V140H140V0H0ZM76.19 109.185C76.19 122.81 68.19 129.03 56.535 129.03C46.005 129.03 39.91 123.595 36.785 117L47.505 110.53C49.57 114.185 51.445 117.28 55.975 117.28C60.285 117.28 63.035 115.59 63.035 109V64.28H76.19V109.185ZM107.31 129.03C95.09 129.03 87.185 123.22 83.34 115.59L94.06 109.405C96.875 114 100.56 117.405 107.03 117.405C112.465 117.405 115.97 114.685 115.97 110.905C115.97 106.405 112.405 104.81 106.375 102.155L103.095 100.75C93.595 96.72 87.315 91.625 87.315 80.905C87.315 71.03 94.845 63.53 106.565 63.53C114.94 63.53 120.94 66.435 125.255 74.06L115.005 80.625C112.755 76.595 110.315 75 106.535 75C102.695 75 100.255 77.44 100.255 80.625C100.255 84.565 102.695 86.155 108.35 88.625L111.63 90.03C122.82 94.81 129.1 99.72 129.1 110.715C129.1 122.53 119.785 129.025 107.315 129.025L107.31 129.03Z" fill="#001F3F"/>
</svg>
