<svg width="400" height="400" viewBox="0 0 400 400" fill="none" xmlns="http://www.w3.org/2000/svg">
<circle cx="200" cy="200" r="200" fill="white"/>
<path d="M208.164 165.472C219.88 167.088 228.835 170.926 235.03 176.986C241.225 183.046 244.322 190.991 244.322 200.822C244.322 211.595 240.551 220.685 233.01 228.092C225.603 235.364 214.157 239 198.67 239H139.08V237.384L155.644 235.768V102.852L139.08 101.236V99.62H189.378C205.269 99.62 217.389 102.448 225.738 108.104C234.087 113.76 238.262 121.975 238.262 132.748C238.262 141.367 235.636 148.504 230.384 154.16C225.132 159.816 217.725 163.317 208.164 164.664V165.472ZM171.198 102.044V164.058H194.63C203.653 164.058 210.117 161.432 214.022 156.18C218.062 150.928 220.082 143.117 220.082 132.748C220.082 112.279 209.645 102.044 188.772 102.044H171.198ZM193.822 236.576C214.695 236.576 225.132 224.86 225.132 201.428C225.132 189.173 222.506 180.285 217.254 174.764C212.002 169.243 204.191 166.482 193.822 166.482H171.198V236.576H193.822Z" fill="#313131"/>
<path d="M192.644 213.768V80.852L176.08 79.236V77.62H225.772V79.236L208.198 80.852V214.576H252.84C256.072 214.576 258.429 214.105 259.91 213.162C261.391 212.085 262.738 210.065 263.95 207.102L277.686 172.56L280.11 172.964L275.06 217H176.08V215.384L192.644 213.768Z" fill="#313131"/>
<path d="M75.928 282.948C76.6373 283.06 77.2813 283.349 77.86 283.816C78.4573 284.283 78.924 284.861 79.26 285.552C79.6147 286.243 79.792 286.98 79.792 287.764C79.792 288.753 79.54 289.649 79.036 290.452C78.532 291.236 77.7947 291.861 76.824 292.328C75.872 292.776 74.7427 293 73.436 293H66.156V273.484H73.156C74.4813 273.484 75.6107 273.708 76.544 274.156C77.4773 274.585 78.1773 275.173 78.644 275.92C79.1107 276.667 79.344 277.507 79.344 278.44C79.344 279.597 79.0267 280.559 78.392 281.324C77.776 282.071 76.9547 282.612 75.928 282.948ZM68.704 281.912H72.988C74.1827 281.912 75.1067 281.632 75.76 281.072C76.4133 280.512 76.74 279.737 76.74 278.748C76.74 277.759 76.4133 276.984 75.76 276.424C75.1067 275.864 74.164 275.584 72.932 275.584H68.704V281.912ZM73.212 290.9C74.4813 290.9 75.4707 290.601 76.18 290.004C76.8893 289.407 77.244 288.576 77.244 287.512C77.244 286.429 76.8707 285.58 76.124 284.964C75.3773 284.329 74.3787 284.012 73.128 284.012H68.704V290.9H73.212ZM105.604 293L100.956 285.02H97.8759V293H95.3279V273.484H101.628C103.103 273.484 104.344 273.736 105.352 274.24C106.379 274.744 107.144 275.425 107.648 276.284C108.152 277.143 108.404 278.123 108.404 279.224C108.404 280.568 108.012 281.753 107.228 282.78C106.463 283.807 105.305 284.488 103.756 284.824L108.656 293H105.604ZM97.8759 282.976H101.628C103.009 282.976 104.045 282.64 104.736 281.968C105.427 281.277 105.772 280.363 105.772 279.224C105.772 278.067 105.427 277.171 104.736 276.536C104.064 275.901 103.028 275.584 101.628 275.584H97.8759V282.976ZM126.911 275.556V282.08H134.023V284.18H126.911V290.9H134.863V293H124.363V273.456H134.863V275.556H126.911ZM166.062 293H163.515L153.267 277.46V293H150.719V273.456H153.267L163.515 288.968V273.456H166.062V293ZM191.254 293.196C189.443 293.196 187.791 292.776 186.298 291.936C184.805 291.077 183.619 289.892 182.742 288.38C181.883 286.849 181.454 285.132 181.454 283.228C181.454 281.324 181.883 279.616 182.742 278.104C183.619 276.573 184.805 275.388 186.298 274.548C187.791 273.689 189.443 273.26 191.254 273.26C193.083 273.26 194.745 273.689 196.238 274.548C197.731 275.388 198.907 276.564 199.766 278.076C200.625 279.588 201.054 281.305 201.054 283.228C201.054 285.151 200.625 286.868 199.766 288.38C198.907 289.892 197.731 291.077 196.238 291.936C194.745 292.776 193.083 293.196 191.254 293.196ZM191.254 290.984C192.617 290.984 193.839 290.667 194.922 290.032C196.023 289.397 196.882 288.492 197.498 287.316C198.133 286.14 198.45 284.777 198.45 283.228C198.45 281.66 198.133 280.297 197.498 279.14C196.882 277.964 196.033 277.059 194.95 276.424C193.867 275.789 192.635 275.472 191.254 275.472C189.873 275.472 188.641 275.789 187.558 276.424C186.475 277.059 185.617 277.964 184.982 279.14C184.366 280.297 184.058 281.66 184.058 283.228C184.058 284.777 184.366 286.14 184.982 287.316C185.617 288.492 186.475 289.397 187.558 290.032C188.659 290.667 189.891 290.984 191.254 290.984ZM238.431 290.928H245.263V293H235.883V273.484H238.431V290.928ZM262.517 273.484V293H259.969V273.484H262.517ZM289.135 293L284.487 285.02H281.407V293H278.859V273.484H285.159C286.634 273.484 287.875 273.736 288.883 274.24C289.91 274.744 290.675 275.425 291.179 276.284C291.683 277.143 291.935 278.123 291.935 279.224C291.935 280.568 291.543 281.753 290.759 282.78C289.994 283.807 288.836 284.488 287.287 284.824L292.187 293H289.135ZM281.407 282.976H285.159C286.54 282.976 287.576 282.64 288.267 281.968C288.958 281.277 289.303 280.363 289.303 279.224C289.303 278.067 288.958 277.171 288.267 276.536C287.595 275.901 286.559 275.584 285.159 275.584H281.407V282.976ZM319.43 288.66H310.918L309.35 293H306.662L313.718 273.596H316.658L323.686 293H320.998L319.43 288.66ZM318.702 286.588L315.174 276.732L311.646 286.588H318.702Z" fill="#313131"/>
<path d="M125 310.832V312.64H120.344V315.504H123.912V317.28H120.344V322H118.104V310.832H125ZM128.828 314.512C129.116 314.043 129.49 313.675 129.948 313.408C130.418 313.141 130.951 313.008 131.548 313.008V315.36H130.956C130.252 315.36 129.719 315.525 129.356 315.856C129.004 316.187 128.828 316.763 128.828 317.584V322H126.588V313.136H128.828V314.512ZM136.993 322.144C136.14 322.144 135.372 321.957 134.689 321.584C134.006 321.2 133.468 320.661 133.073 319.968C132.689 319.275 132.497 318.475 132.497 317.568C132.497 316.661 132.694 315.861 133.089 315.168C133.494 314.475 134.044 313.941 134.737 313.568C135.43 313.184 136.204 312.992 137.057 312.992C137.91 312.992 138.684 313.184 139.377 313.568C140.07 313.941 140.614 314.475 141.009 315.168C141.414 315.861 141.617 316.661 141.617 317.568C141.617 318.475 141.409 319.275 140.993 319.968C140.588 320.661 140.033 321.2 139.329 321.584C138.636 321.957 137.857 322.144 136.993 322.144ZM136.993 320.192C137.398 320.192 137.777 320.096 138.129 319.904C138.492 319.701 138.78 319.403 138.993 319.008C139.206 318.613 139.313 318.133 139.313 317.568C139.313 316.725 139.089 316.08 138.641 315.632C138.204 315.173 137.665 314.944 137.025 314.944C136.385 314.944 135.846 315.173 135.409 315.632C134.982 316.08 134.769 316.725 134.769 317.568C134.769 318.411 134.977 319.061 135.393 319.52C135.82 319.968 136.353 320.192 136.993 320.192ZM148.172 313.008C149.228 313.008 150.082 313.344 150.732 314.016C151.383 314.677 151.708 315.605 151.708 316.8V322H149.468V317.104C149.468 316.4 149.292 315.861 148.94 315.488C148.588 315.104 148.108 314.912 147.5 314.912C146.882 314.912 146.391 315.104 146.028 315.488C145.676 315.861 145.5 316.4 145.5 317.104V322H143.26V313.136H145.5V314.24C145.799 313.856 146.178 313.557 146.636 313.344C147.106 313.12 147.618 313.008 148.172 313.008ZM156.446 314.976V319.264C156.446 319.563 156.516 319.781 156.654 319.92C156.804 320.048 157.049 320.112 157.39 320.112H158.43V322H157.022C155.134 322 154.19 321.083 154.19 319.248V314.976H153.134V313.136H154.19V310.944H156.446V313.136H158.43V314.976H156.446ZM166.858 315.344V317.232H160.074V315.344H166.858ZM171.61 312.64V315.44H175.37V317.216H171.61V320.176H175.85V322H169.37V310.816H175.85V312.64H171.61ZM182.797 313.008C183.853 313.008 184.707 313.344 185.357 314.016C186.008 314.677 186.333 315.605 186.333 316.8V322H184.093V317.104C184.093 316.4 183.917 315.861 183.565 315.488C183.213 315.104 182.733 314.912 182.125 314.912C181.507 314.912 181.016 315.104 180.653 315.488C180.301 315.861 180.125 316.4 180.125 317.104V322H177.885V313.136H180.125V314.24C180.424 313.856 180.803 313.557 181.261 313.344C181.731 313.12 182.243 313.008 182.797 313.008ZM187.887 317.536C187.887 316.64 188.063 315.845 188.415 315.152C188.778 314.459 189.269 313.925 189.887 313.552C190.506 313.179 191.194 312.992 191.951 312.992C192.527 312.992 193.077 313.12 193.599 313.376C194.122 313.621 194.538 313.952 194.847 314.368V310.16H197.119V322H194.847V320.688C194.57 321.125 194.181 321.477 193.679 321.744C193.178 322.011 192.597 322.144 191.935 322.144C191.189 322.144 190.506 321.952 189.887 321.568C189.269 321.184 188.778 320.645 188.415 319.952C188.063 319.248 187.887 318.443 187.887 317.536ZM194.863 317.568C194.863 317.024 194.757 316.56 194.543 316.176C194.33 315.781 194.042 315.483 193.679 315.28C193.317 315.067 192.927 314.96 192.511 314.96C192.095 314.96 191.711 315.061 191.359 315.264C191.007 315.467 190.719 315.765 190.495 316.16C190.282 316.544 190.175 317.003 190.175 317.536C190.175 318.069 190.282 318.539 190.495 318.944C190.719 319.339 191.007 319.643 191.359 319.856C191.722 320.069 192.106 320.176 192.511 320.176C192.927 320.176 193.317 320.075 193.679 319.872C194.042 319.659 194.33 319.36 194.543 318.976C194.757 318.581 194.863 318.112 194.863 317.568ZM207.024 310.832C208.197 310.832 209.226 311.061 210.112 311.52C211.008 311.979 211.696 312.635 212.176 313.488C212.666 314.331 212.912 315.312 212.912 316.432C212.912 317.552 212.666 318.533 212.176 319.376C211.696 320.208 211.008 320.853 210.112 321.312C209.226 321.771 208.197 322 207.024 322H203.12V310.832H207.024ZM206.944 320.096C208.117 320.096 209.024 319.776 209.664 319.136C210.304 318.496 210.624 317.595 210.624 316.432C210.624 315.269 210.304 314.363 209.664 313.712C209.024 313.051 208.117 312.72 206.944 312.72H205.36V320.096H206.944ZM222.828 317.376C222.828 317.696 222.807 317.984 222.764 318.24H216.284C216.338 318.88 216.562 319.381 216.956 319.744C217.351 320.107 217.836 320.288 218.412 320.288C219.244 320.288 219.836 319.931 220.188 319.216H222.604C222.348 320.069 221.858 320.773 221.132 321.328C220.407 321.872 219.516 322.144 218.46 322.144C217.607 322.144 216.839 321.957 216.156 321.584C215.484 321.2 214.956 320.661 214.572 319.968C214.199 319.275 214.012 318.475 214.012 317.568C214.012 316.651 214.199 315.845 214.572 315.152C214.946 314.459 215.468 313.925 216.14 313.552C216.812 313.179 217.586 312.992 218.46 312.992C219.303 312.992 220.055 313.173 220.716 313.536C221.388 313.899 221.906 314.416 222.268 315.088C222.642 315.749 222.828 316.512 222.828 317.376ZM220.508 316.736C220.498 316.16 220.29 315.701 219.884 315.36C219.479 315.008 218.983 314.832 218.396 314.832C217.842 314.832 217.372 315.003 216.988 315.344C216.615 315.675 216.386 316.139 216.3 316.736H220.508ZM228.159 319.936L230.399 313.136H232.783L229.503 322H226.783L223.519 313.136H225.919L228.159 319.936ZM242.282 317.376C242.282 317.696 242.26 317.984 242.218 318.24H235.738C235.791 318.88 236.015 319.381 236.41 319.744C236.804 320.107 237.29 320.288 237.866 320.288C238.698 320.288 239.29 319.931 239.642 319.216H242.058C241.802 320.069 241.311 320.773 240.586 321.328C239.86 321.872 238.97 322.144 237.914 322.144C237.06 322.144 236.292 321.957 235.61 321.584C234.938 321.2 234.41 320.661 234.026 319.968C233.652 319.275 233.465 318.475 233.465 317.568C233.465 316.651 233.652 315.845 234.026 315.152C234.399 314.459 234.922 313.925 235.594 313.552C236.266 313.179 237.039 312.992 237.914 312.992C238.756 312.992 239.508 313.173 240.17 313.536C240.842 313.899 241.359 314.416 241.722 315.088C242.095 315.749 242.282 316.512 242.282 317.376ZM239.962 316.736C239.951 316.16 239.743 315.701 239.338 315.36C238.932 315.008 238.436 314.832 237.85 314.832C237.295 314.832 236.826 315.003 236.442 315.344C236.068 315.675 235.839 316.139 235.754 316.736H239.962ZM246.157 310.16V322H243.917V310.16H246.157ZM252.306 322.144C251.452 322.144 250.684 321.957 250.002 321.584C249.319 321.2 248.78 320.661 248.386 319.968C248.002 319.275 247.81 318.475 247.81 317.568C247.81 316.661 248.007 315.861 248.402 315.168C248.807 314.475 249.356 313.941 250.05 313.568C250.743 313.184 251.516 312.992 252.37 312.992C253.223 312.992 253.996 313.184 254.69 313.568C255.383 313.941 255.927 314.475 256.322 315.168C256.727 315.861 256.93 316.661 256.93 317.568C256.93 318.475 256.722 319.275 256.306 319.968C255.9 320.661 255.346 321.2 254.642 321.584C253.948 321.957 253.17 322.144 252.306 322.144ZM252.306 320.192C252.711 320.192 253.09 320.096 253.442 319.904C253.804 319.701 254.092 319.403 254.306 319.008C254.519 318.613 254.626 318.133 254.626 317.568C254.626 316.725 254.402 316.08 253.954 315.632C253.516 315.173 252.978 314.944 252.338 314.944C251.698 314.944 251.159 315.173 250.722 315.632C250.295 316.08 250.082 316.725 250.082 317.568C250.082 318.411 250.29 319.061 250.706 319.52C251.132 319.968 251.666 320.192 252.306 320.192ZM260.813 314.416C261.101 314.011 261.495 313.675 261.997 313.408C262.509 313.131 263.09 312.992 263.741 312.992C264.498 312.992 265.181 313.179 265.789 313.552C266.407 313.925 266.893 314.459 267.245 315.152C267.607 315.835 267.789 316.629 267.789 317.536C267.789 318.443 267.607 319.248 267.245 319.952C266.893 320.645 266.407 321.184 265.789 321.568C265.181 321.952 264.498 322.144 263.741 322.144C263.09 322.144 262.514 322.011 262.013 321.744C261.522 321.477 261.122 321.141 260.813 320.736V326.224H258.573V313.136H260.813V314.416ZM265.501 317.536C265.501 317.003 265.389 316.544 265.165 316.16C264.951 315.765 264.663 315.467 264.301 315.264C263.949 315.061 263.565 314.96 263.149 314.96C262.743 314.96 262.359 315.067 261.997 315.28C261.645 315.483 261.357 315.781 261.133 316.176C260.919 316.571 260.813 317.035 260.813 317.568C260.813 318.101 260.919 318.565 261.133 318.96C261.357 319.355 261.645 319.659 261.997 319.872C262.359 320.075 262.743 320.176 263.149 320.176C263.565 320.176 263.949 320.069 264.301 319.856C264.663 319.643 264.951 319.339 265.165 318.944C265.389 318.549 265.501 318.08 265.501 317.536ZM277.657 317.376C277.657 317.696 277.635 317.984 277.593 318.24H271.113C271.166 318.88 271.39 319.381 271.785 319.744C272.179 320.107 272.665 320.288 273.241 320.288C274.073 320.288 274.665 319.931 275.017 319.216H277.433C277.177 320.069 276.686 320.773 275.961 321.328C275.235 321.872 274.345 322.144 273.289 322.144C272.435 322.144 271.667 321.957 270.985 321.584C270.313 321.2 269.785 320.661 269.401 319.968C269.027 319.275 268.84 318.475 268.84 317.568C268.84 316.651 269.027 315.845 269.401 315.152C269.774 314.459 270.297 313.925 270.969 313.552C271.641 313.179 272.414 312.992 273.289 312.992C274.131 312.992 274.883 313.173 275.545 313.536C276.217 313.899 276.734 314.416 277.097 315.088C277.47 315.749 277.657 316.512 277.657 317.376ZM275.337 316.736C275.326 316.16 275.118 315.701 274.713 315.36C274.307 315.008 273.811 314.832 273.225 314.832C272.67 314.832 272.201 315.003 271.817 315.344C271.443 315.675 271.214 316.139 271.129 316.736H275.337ZM281.532 314.512C281.82 314.043 282.193 313.675 282.652 313.408C283.121 313.141 283.654 313.008 284.252 313.008V315.36H283.66C282.956 315.36 282.422 315.525 282.06 315.856C281.708 316.187 281.532 316.763 281.532 317.584V322H279.292V313.136H281.532V314.512Z" fill="#313131" fill-opacity="0.9"/>
<circle cx="219" cy="283" r="3" fill="#313131"/>
</svg>
