<svg width="118" height="24" viewBox="0 0 118 24" fill="none" xmlns="http://www.w3.org/2000/svg">
<path d="M105.525 0.744263L95.5454 24.0001H99.0382L107.021 6.07433L114.507 24.0001H118L108.02 0.744263H105.525Z" fill="white"/>
<path d="M72.5923 24.0001V11.4028H82.5719C85.268 11.163 86.4966 10.7082 86.5635 7.52714C86.53 5.12126 85.856 4.24246 82.5719 4.1357H72.5923V0.744263H84.5669C88.3481 1.34921 89.8252 2.72621 90.555 7.52714C89.9734 12.3621 88.6015 13.7855 84.5669 14.31L91.5525 24.0001H88.0597L81.0741 14.31H76.0851V24.0001H72.5923Z" fill="white"/>
<path d="M66.6039 0.744263H63.6099V24.0001H66.6039V0.744263Z" fill="white"/>
<path d="M41.6538 0.744263H45.1466V21.0929H58.6191V24.0001H41.6538V0.744263Z" fill="white"/>
<path d="M0 0H9.80757C12.0113 0 13.6047 0.512119 14.5863 1.53481C15.5917 2.5575 16.0952 4.05828 16.0952 6.03404C16.0952 7.66322 15.7845 8.9412 15.1615 9.87261C14.5385 10.7793 13.5442 11.3842 12.1786 11.6859V11.8252C13.7115 12.1284 14.7902 12.755 15.4133 13.7096C16.0347 14.6627 16.347 15.9763 16.347 17.6503C16.347 19.6508 15.8562 21.2089 14.8731 22.3259C13.9154 23.4415 12.2025 24 9.73586 24H0V0ZM8.62205 10.2904C9.96372 10.2904 10.9214 10.0119 11.4966 9.45332C12.0718 8.89479 12.3586 7.9773 12.3586 6.69778C12.3586 5.74471 12.2503 5.02372 12.0352 4.53481C11.844 4.02269 11.4727 3.6622 10.9214 3.45332C10.3939 3.22125 9.62751 3.10521 8.62205 3.10521H3.69995V10.2904H8.62205ZM8.80211 20.9304C9.80757 20.9304 10.574 20.8143 11.1014 20.5807C11.6528 20.3486 12.0352 19.9649 12.2503 19.4296C12.4909 18.8958 12.6104 18.1516 12.6104 17.197C12.6104 15.755 12.3347 14.7679 11.7834 14.2326C11.2337 13.6741 10.2394 13.3956 8.80211 13.3956H3.69995V20.9304H8.80211Z" fill="white"/>
<path d="M23.6895 21.0928H26.6835V23.9999H23.6895V21.0928Z" fill="white"/>
</svg>
